<svg width="144" height="28" viewBox="0 0 144 28" fill="none" xmlns="http://www.w3.org/2000/svg">
<path d="M15.0469 21.4375L0.015625 15.1719V12L15.0469 5.71875V9.84375L5.76562 13.5781L15.0469 17.2969V21.4375ZM28.5312 0.71875L21.0312 26.9844H16.25L23.7969 0.71875H28.5312ZM45.0625 16.0156C45.0625 18.5573 45 20.3594 44.875 21.4219C44.7604 22.474 44.3854 23.4375 43.75 24.3125C43.125 25.1875 42.276 25.8594 41.2031 26.3281C40.1302 26.7969 38.8802 27.0312 37.4531 27.0312C36.099 27.0312 34.8802 26.8125 33.7969 26.375C32.724 25.9271 31.8594 25.2604 31.2031 24.375C30.5469 23.4896 30.1562 22.526 30.0312 21.4844C29.9062 20.4427 29.8438 18.6198 29.8438 16.0156V11.6875C29.8438 9.14583 29.901 7.34896 30.0156 6.29688C30.1406 5.23438 30.5156 4.26562 31.1406 3.39062C31.776 2.51562 32.6302 1.84375 33.7031 1.375C34.776 0.90625 36.026 0.671875 37.4531 0.671875C38.8073 0.671875 40.0208 0.895833 41.0938 1.34375C42.1771 1.78125 43.0469 2.44271 43.7031 3.32812C44.3594 4.21354 44.75 5.17708 44.875 6.21875C45 7.26042 45.0625 9.08333 45.0625 11.6875V16.0156ZM38.4844 7.70312C38.4844 6.52604 38.4167 5.77604 38.2812 5.45312C38.1562 5.11979 37.8906 4.95312 37.4844 4.95312C37.1406 4.95312 36.875 5.08854 36.6875 5.35938C36.5104 5.61979 36.4219 6.40104 36.4219 7.70312V19.5156C36.4219 20.9844 36.4792 21.8906 36.5938 22.2344C36.7188 22.5781 37 22.75 37.4375 22.75C37.8854 22.75 38.1719 22.5521 38.2969 22.1562C38.4219 21.7604 38.4844 20.8177 38.4844 19.3281V7.70312ZM128.891 5.71875L143.922 11.9688V15.1562L128.891 21.4375V17.3125L138.172 13.5781L128.891 9.85938V5.71875Z" fill="#FF8303"/>
<path d="M53.7656 5.76562L53.6562 7.67188C54.1146 6.91146 54.6719 6.34375 55.3281 5.96875C55.9948 5.58333 56.7604 5.39062 57.625 5.39062C58.7083 5.39062 59.5938 5.64583 60.2812 6.15625C60.9688 6.66667 61.4115 7.3125 61.6094 8.09375C61.8073 8.86458 61.9062 10.1562 61.9062 11.9688V26.5H55.5938V12.1406C55.5938 10.7135 55.5469 9.84375 55.4531 9.53125C55.3594 9.21875 55.099 9.0625 54.6719 9.0625C54.224 9.0625 53.9427 9.24479 53.8281 9.60938C53.7135 9.96354 53.6562 10.9219 53.6562 12.4844V26.5H47.3438V5.76562H53.7656ZM70.75 3V6.26562H72.4531V9.54688H70.75V20.6406C70.75 22.0052 70.8177 22.7656 70.9531 22.9219C71.099 23.0781 71.6875 23.1562 72.7188 23.1562V26.5H70.1719C68.7344 26.5 67.7083 26.4427 67.0938 26.3281C66.4792 26.2031 65.9375 25.9271 65.4688 25.5C65 25.0625 64.7083 24.5677 64.5938 24.0156C64.4792 23.4531 64.4219 22.1406 64.4219 20.0781V9.54688H63.0625V6.26562H64.4219V3H70.75ZM79.4844 13.7969H73.5625V12.4062C73.5625 10.8021 73.7448 9.56771 74.1094 8.70312C74.4844 7.82812 75.2292 7.05729 76.3438 6.39062C77.4583 5.72396 78.9062 5.39062 80.6875 5.39062C82.8229 5.39062 84.4323 5.77083 85.5156 6.53125C86.599 7.28125 87.25 8.20833 87.4688 9.3125C87.6875 10.4062 87.7969 12.6667 87.7969 16.0938V26.5H81.6562V24.6562C81.2708 25.3958 80.7708 25.9531 80.1562 26.3281C79.5521 26.6927 78.8281 26.875 77.9844 26.875C76.8802 26.875 75.8646 26.5677 74.9375 25.9531C74.0208 25.3281 73.5625 23.9688 73.5625 21.875V20.1719C73.5625 18.6198 73.8073 17.5625 74.2969 17C74.7865 16.4375 76 15.7812 77.9375 15.0312C80.0104 14.2188 81.1198 13.6719 81.2656 13.3906C81.4115 13.1094 81.4844 12.5365 81.4844 11.6719C81.4844 10.5885 81.401 9.88542 81.2344 9.5625C81.0781 9.22917 80.8125 9.0625 80.4375 9.0625C80.0104 9.0625 79.7448 9.20312 79.6406 9.48438C79.5365 9.75521 79.4844 10.4688 79.4844 11.625V13.7969ZM81.4844 16.6406C80.474 17.3802 79.8854 18 79.7188 18.5C79.5625 19 79.4844 19.7188 79.4844 20.6562C79.4844 21.7292 79.5521 22.4219 79.6875 22.7344C79.8333 23.0469 80.1146 23.2031 80.5312 23.2031C80.9271 23.2031 81.1823 23.0833 81.2969 22.8438C81.4219 22.5938 81.4844 21.9479 81.4844 20.9062V16.6406ZM96.4688 1.20312V26.5H89.9688V1.20312H96.4688ZM113.047 16.5H104.875V20.9844C104.875 21.9219 104.943 22.526 105.078 22.7969C105.214 23.0677 105.474 23.2031 105.859 23.2031C106.339 23.2031 106.656 23.026 106.812 22.6719C106.979 22.3073 107.062 21.6094 107.062 20.5781V17.8438H113.047V19.375C113.047 20.6562 112.964 21.6406 112.797 22.3281C112.641 23.0156 112.266 23.75 111.672 24.5312C111.078 25.3125 110.323 25.901 109.406 26.2969C108.5 26.6823 107.359 26.875 105.984 26.875C104.651 26.875 103.474 26.6823 102.453 26.2969C101.432 25.9115 100.635 25.3854 100.062 24.7188C99.5 24.0417 99.1094 23.3021 98.8906 22.5C98.6719 21.6875 98.5625 20.5104 98.5625 18.9688V12.9219C98.5625 11.1094 98.8073 9.68229 99.2969 8.64062C99.7865 7.58854 100.589 6.78646 101.703 6.23438C102.818 5.67188 104.099 5.39062 105.547 5.39062C107.318 5.39062 108.776 5.72917 109.922 6.40625C111.078 7.07292 111.885 7.96354 112.344 9.07812C112.812 10.1823 113.047 11.7396 113.047 13.75V16.5ZM106.719 13.125V11.6094C106.719 10.5365 106.661 9.84375 106.547 9.53125C106.432 9.21875 106.198 9.0625 105.844 9.0625C105.406 9.0625 105.135 9.19792 105.031 9.46875C104.927 9.72917 104.875 10.4427 104.875 11.6094V13.125H106.719ZM127.625 5.76562L125.109 15.6719L128.156 26.5H122.016C121.411 23.7708 120.953 21.4219 120.641 19.4531C120.224 21.9115 119.771 24.2604 119.281 26.5H114L116.719 15.6719L114 5.76562H119.281C120.125 9.99479 120.578 12.3958 120.641 12.9688C121.245 9.4375 121.703 7.03646 122.016 5.76562H127.625Z" fill="#F0E3CA"/>
</svg>
