<svg width="33" height="32" viewBox="0 0 33 32" fill="none" xmlns="http://www.w3.org/2000/svg">
<path fill-rule="evenodd" clip-rule="evenodd" d="M11.72 0C8.45734 0 5.83334 2.73733 5.83334 6.09067C5.83334 8.12933 6.804 9.94 8.296 11.0453C7.52704 11.6214 6.90375 12.3697 6.47609 13.2301C6.04843 14.0905 5.8283 15.0392 5.83334 16C5.83334 18.04 6.804 19.8493 8.296 20.9547C7.52704 21.5308 6.90375 22.279 6.47609 23.1395C6.04843 23.9999 5.8283 24.9485 5.83334 25.9093C5.83334 29.2627 8.45734 32 11.72 32C14.9813 32 17.6067 29.2627 17.6067 25.9093V20.76C18.6378 21.6197 19.9375 22.091 21.28 22.092C24.5427 22.0907 27.1667 19.3533 27.1667 16C27.172 15.0391 26.952 14.0904 26.5243 13.2299C26.0967 12.3694 25.4732 11.6212 24.704 11.0453C25.473 10.4692 26.0963 9.72096 26.5239 8.86055C26.9516 8.00013 27.1717 7.05149 27.1667 6.09067C27.1667 2.73733 24.5427 0 21.28 0H11.72V0ZM8.04534 6.09067C8.04534 3.96933 9.70134 2.27067 11.72 2.27067H15.3933V9.91067H11.72C9.70134 9.91067 8.04534 8.21067 8.04534 6.09067V6.09067ZM21.28 9.90933H17.6067V2.26933H21.28C23.3 2.26933 24.9547 3.96933 24.9547 6.09067C24.9547 8.21067 23.3 9.90933 21.28 9.90933ZM8.04667 16C8.04667 13.88 9.70267 12.18 11.7213 12.18H15.3947V19.82H11.72C9.7 19.82 8.04534 18.12 8.04534 16H8.04667ZM17.6067 16C17.6067 13.88 19.2627 12.18 21.2813 12.18C23.3013 12.18 24.956 13.8787 24.956 16C24.956 18.12 23.3013 19.82 21.2813 19.82C19.2627 19.82 17.608 18.1213 17.608 16H17.6067ZM8.04667 25.9093C8.04667 23.7893 9.70267 22.0907 11.7213 22.0907H15.3947V25.9093C15.3947 28.0307 13.7413 29.7293 11.7213 29.7293C9.70267 29.7293 8.04667 28.0307 8.04667 25.9093Z" fill="#F0E3CA"/>
</svg>
