<svg width="33" height="32" viewBox="0 0 33 32" fill="none" xmlns="http://www.w3.org/2000/svg">
<g clip-path="url(#clip0_48_19)">
<path d="M16.5 0.396019C7.661 0.396019 0.5 7.56302 0.5 16.396C0.5 23.4691 5.084 29.464 11.437 31.579C12.24 31.73 12.53 31.235 12.53 30.807C12.53 30.427 12.521 29.422 12.515 28.088C8.062 29.052 7.124 25.937 7.124 25.937C6.395 24.0931 5.343 23.598 5.343 23.598C3.895 22.609 5.458 22.63 5.458 22.63C7.062 22.739 7.906 24.275 7.906 24.275C9.33299 26.723 11.65 26.015 12.567 25.603C12.707 24.572 13.124 23.863 13.578 23.468C10.026 23.067 6.291 21.692 6.291 15.561C6.291 13.81 6.911 12.384 7.936 11.264C7.759 10.863 7.217 9.23301 8.077 7.02902C8.077 7.02902 9.41604 6.60202 12.477 8.67004C13.7809 8.31538 15.1258 8.13351 16.477 8.12901C17.837 8.138 19.196 8.31599 20.477 8.67004C23.52 6.60202 24.858 7.02902 24.858 7.02902C25.717 9.23301 25.175 10.862 25.019 11.264C26.034 12.384 26.654 13.811 26.654 15.561C26.654 21.706 22.914 23.0611 19.358 23.452C19.914 23.931 20.435 24.916 20.435 26.411C20.435 28.551 20.415 30.275 20.415 30.796C20.415 31.212 20.695 31.712 21.519 31.551C27.919 29.458 32.498 23.458 32.498 16.395C32.498 7.56202 25.337 0.39502 16.498 0.39502L16.5 0.396019Z" fill="#F0E3CA"/>
</g>
<defs>
<clipPath id="clip0_48_19">
<rect width="32" height="32" fill="white" transform="translate(0.5)"/>
</clipPath>
</defs>
</svg>
