<svg width="33" height="32" viewBox="0 0 33 32" fill="none" xmlns="http://www.w3.org/2000/svg">
<path d="M27.1667 29.3333H5.83335C5.12611 29.3333 4.44783 29.0523 3.94774 28.5523C3.44764 28.0522 3.16669 27.3738 3.16669 26.6666V12.0653C3.18885 11.6246 3.31839 11.1959 3.54404 10.8167C3.76968 10.4374 4.08458 10.1191 4.46135 9.88928L15.128 3.48931C15.5423 3.2409 16.0163 3.10968 16.4993 3.10968C16.9824 3.10968 17.4564 3.2409 17.8707 3.48931L28.5374 9.88928C29.3386 10.3733 29.8307 11.24 29.8334 12.176V26.6666C29.8334 27.3738 29.5524 28.0522 29.0523 28.5523C28.5522 29.0523 27.874 29.3333 27.1667 29.3333ZM5.83335 13.1573V26.6666H27.1667V13.1573L16.5 20.2679L5.83335 13.1573ZM16.5 5.77597L7.58802 11.1226L16.5 17.064L25.4107 11.1226L16.5 5.77597Z" fill="#F0E3CA"/>
</svg>
