<svg width="33" height="32" viewBox="0 0 33 32" fill="none" xmlns="http://www.w3.org/2000/svg">
<path d="M19.1667 25.3333H13.8334C11.0044 25.3333 8.29126 24.2095 6.29089 22.2091C4.2905 20.2088 3.16669 17.4956 3.16669 14.6667V8H8.50002V14.6667C8.50002 16.0811 9.06192 17.4377 10.0622 18.4379C11.0623 19.4381 12.4189 20 13.8334 20V8H19.1667V14L19.2067 13.9947C20.668 13.8123 22.0125 13.1025 22.9873 11.9986C23.962 10.8946 24.4999 9.47269 24.5 8H29.8334L29.3774 10.2813C29.1042 11.6468 28.5229 12.9318 27.6776 14.0384C26.8324 15.145 25.7455 16.044 24.5 16.6667C25.7111 17.0702 26.7915 17.7918 27.628 18.7562C28.4645 19.7205 29.0263 20.892 29.2547 22.148L29.8334 25.3333H24.5C24.4999 23.8606 23.962 22.4387 22.9873 21.3348C22.0125 20.2309 20.668 19.521 19.2067 19.3387V25.3387L19.1667 25.3333Z" stroke="#F0E3CA" stroke-width="3" stroke-linecap="round" stroke-linejoin="round"/>
</svg>
